<svg width="35" height="35" viewBox="0 0 35 35" fill="none" xmlns="http://www.w3.org/2000/svg">
<circle cx="17.5" cy="17.5" r="17.5" fill="#F59E32"/>
<g clip-path="url(#clip0_3_169)">
<path d="M10 10.7662C10 10.7662 12.2912 9.18497 14.795 10.5656C15.7531 11.0937 16.1575 12.2143 15.8106 13.2031C15.9175 13.4868 16.0012 13.78 16.0625 14.0706C16.3119 13.8056 16.6031 13.5643 16.9369 13.3606C16.7444 12.6062 17.065 11.7881 17.7769 11.39C19.7525 10.285 21.875 11.5625 21.875 11.5625C21.4113 12.7268 20.5925 13.8493 19.495 14.4631C18.8969 14.7975 18.1906 14.7387 17.6581 14.3818C16.6888 14.9312 16.25 15.9393 16.25 16.25H15C15 15.2618 14.8987 14.5437 14.7506 14.005C14.5594 13.4856 14.01 12.695 14 12.6875L14.0044 12.6818C12.9613 11.4256 11.5625 11.25 11.5625 11.25C12.9244 12.8062 13.4375 13.4375 13.7319 14.6775C13.3538 14.6825 12.9706 14.6018 12.6169 14.4068C11.2256 13.64 10.625 11.875 10 10.7662ZM24.5219 18.135L18.405 25H11.875C10.8412 25 10 24.1587 10 23.125V18.75C10 17.7162 10.8412 16.875 11.875 16.875H18.0356C18.7475 16.875 19.3725 17.2556 19.7162 17.8243L21.7269 15.6156C22.0644 15.2437 22.5275 15.0256 23.03 15.0025C23.5375 14.9781 24.0138 15.1525 24.3856 15.4912C25.1444 16.1831 25.2056 17.3693 24.5219 18.135ZM23.5437 16.415C23.4194 16.3018 23.2581 16.2456 23.0887 16.2512C22.92 16.2593 22.7644 16.3318 22.6519 16.4568L19.885 19.4968C19.6444 20.1656 19.0481 20.6787 18.3138 20.7837L15.0881 21.2443L14.9113 20.0068L18.1369 19.5462C18.4869 19.4968 18.7494 19.1931 18.7494 18.84C18.7494 18.4462 18.4288 18.1256 18.035 18.1256H11.875C11.53 18.1256 11.25 18.4056 11.25 18.7506V23.1256C11.25 23.4706 11.53 23.7506 11.875 23.7506H17.845L23.5888 17.3031C23.8188 17.0456 23.7981 16.6475 23.5437 16.415Z" fill="white"/>
</g>
<defs>
<clipPath id="clip0_3_169">
<rect width="15" height="15" fill="white" transform="translate(10 10)"/>
</clipPath>
</defs>
</svg>
