<svg width="35" height="35" viewBox="0 0 35 35" fill="none" xmlns="http://www.w3.org/2000/svg">
<circle cx="17.5" cy="17.5" r="17.5" fill="#F59E32"/>
<g clip-path="url(#clip0_3_202)">
<path d="M24.3862 15.4906C24.0144 15.1519 23.5387 14.9775 23.0306 15.0019C22.5281 15.025 22.065 15.2431 21.7275 15.615L19.7169 17.8238C19.45 17.3838 19.0144 17.0588 18.5012 16.9331C18.655 16.635 18.75 16.3025 18.75 15.9444C18.75 14.3713 17.6481 12.5244 16.1781 11.8388C16.3887 11.6188 16.5944 11.3744 16.7594 11.1119C17.0644 10.6294 16.7294 9.99939 16.1581 9.99939H13.8406C13.2694 9.99939 12.935 10.6294 13.2394 11.1119C13.405 11.3744 13.61 11.6181 13.8206 11.8388C12.3506 12.5238 11.2487 14.3713 11.2487 15.9444C11.2487 16.3531 11.3694 16.7319 11.5662 17.0588C10.6487 17.4294 9.99875 18.3256 9.99875 19.3744V22.4994C9.99875 23.8781 11.12 24.9994 12.4987 24.9994H15.6019C17.3831 24.9994 19.0831 24.2369 20.2687 22.9069L24.5212 18.1338C25.205 17.3681 25.1438 16.1819 24.385 15.49L24.3862 15.4906ZM15 12.8125C16.1381 12.8431 17.5 14.5238 17.5 15.945C17.5 16.4581 17.0794 16.875 16.5625 16.875H13.4375C12.9206 16.875 12.5 16.4581 12.5 15.945C12.5 14.5238 13.8619 12.8431 15 12.8125ZM23.5887 17.3025L19.3356 22.0763C18.3875 23.14 17.0275 23.75 15.6025 23.75H12.4994C11.81 23.75 11.2494 23.1894 11.2494 22.5V19.375C11.2494 18.6856 11.81 18.125 12.4994 18.125H18.035C18.4287 18.125 18.7494 18.445 18.7494 18.8388C18.7494 19.1913 18.4856 19.4956 18.1369 19.5456L14.9112 20.0063C14.5694 20.055 14.3319 20.3713 14.3806 20.7131C14.4294 21.0544 14.7456 21.2894 15.0881 21.2431L18.3137 20.7825C19.0481 20.6775 19.6437 20.165 19.885 19.4963L22.6519 16.4556C22.765 16.3306 22.9206 16.2581 23.0887 16.25C23.2581 16.2456 23.4187 16.3013 23.5437 16.4138C23.7981 16.6463 23.8187 17.0444 23.5887 17.3019V17.3025Z" fill="white"/>
</g>
<defs>
<clipPath id="clip0_3_202">
<rect width="15" height="15" fill="white" transform="translate(10 10)"/>
</clipPath>
</defs>
</svg>
