<svg width="35" height="35" viewBox="0 0 35 35" fill="none" xmlns="http://www.w3.org/2000/svg">
<circle cx="17.5" cy="17.5" r="17.5" fill="#F59E32"/>
<g clip-path="url(#clip0_3_192)">
<path d="M20.3937 11.8125C19.9019 11.3956 19.3863 10.9575 18.8613 10.48C18.4585 10.1137 17.9146 9.94395 17.375 10.0162C16.8521 10.0853 16.3869 10.3829 16.105 10.8287C15.36 12.0737 14.8332 13.4369 14.5475 14.8593C14.4354 14.6975 14.3359 14.5272 14.25 14.35C13.954 13.7263 13.2084 13.4607 12.5847 13.7567C12.4338 13.8283 12.2987 13.9296 12.1875 14.0543C11.1392 15.1256 10.558 16.5686 10.5712 18.0674C10.5414 21.2178 12.6605 23.9837 15.71 24.775C16.2774 24.9177 16.8599 24.9916 17.445 24.995C17.4637 24.995 17.6631 24.9931 17.7437 24.9875C21.475 24.8666 24.4359 21.8044 24.4312 18.0712C24.4287 15.24 22.5588 13.6525 20.3937 11.8125ZM17.4294 23.7406C16.9642 23.7052 16.5046 23.5168 16.1575 23.2368C15.614 22.8523 15.2544 22.2884 15.1688 21.6387C15.0625 20.6249 15.6875 19.2993 16.9644 17.8018C17.0983 17.6454 17.2942 17.5558 17.5 17.5568C17.7032 17.5554 17.8965 17.6447 18.0269 17.8006C19.1969 19.1893 19.8394 20.4706 19.8394 21.4087C19.8358 22.6412 18.8724 23.6162 17.6457 23.735C17.5918 23.7402 17.5 23.7481 17.4294 23.7406ZM20.985 22.5518C20.9481 22.5806 20.9075 22.6037 20.87 22.6312C21.0142 22.2393 21.0885 21.8251 21.0894 21.4074C21.0894 19.8281 19.9425 18.1356 18.9813 16.9937C18.6135 16.5581 18.0726 16.3066 17.5025 16.3062H17.5C16.9288 16.3051 16.3859 16.5549 16.015 16.9893C14.4869 18.7793 13.785 20.3874 13.9287 21.7693C13.9629 22.0901 14.0448 22.404 14.1719 22.7005C12.6878 21.6252 11.8133 19.9001 11.8231 18.0674C11.811 16.8768 12.2806 15.7318 13.125 14.8924C13.2692 15.1921 13.4423 15.477 13.6419 15.7431C13.916 16.1137 14.3843 16.2856 14.8331 16.1805C15.2907 16.0793 15.646 15.7184 15.74 15.2593C15.9911 13.932 16.471 12.6585 17.1581 11.4956C17.2427 11.3626 17.3823 11.2746 17.5387 11.2556C17.7135 11.232 17.8898 11.2872 18.02 11.4062C18.5562 11.8937 19.0825 12.3437 19.5825 12.7668C21.6687 14.5387 23.1769 15.8187 23.1769 18.0712C23.1822 19.8241 22.3731 21.4801 20.9869 22.5531L20.985 22.5518Z" fill="white"/>
</g>
<defs>
<clipPath id="clip0_3_192">
<rect width="15" height="15" fill="white" transform="translate(10 10)"/>
</clipPath>
</defs>
</svg>
