<svg width="35" height="35" viewBox="0 0 35 35" fill="none" xmlns="http://www.w3.org/2000/svg">
<circle cx="17.5" cy="17.5" r="17.5" fill="#F59E32"/>
<g clip-path="url(#clip0_3_154)">
<path d="M22.8294 12.6357L19.0625 10.4607C18.5872 10.1873 18.0484 10.0435 17.5 10.0435C16.9517 10.0435 16.4129 10.1873 15.9375 10.4607L12.1707 12.6357C11.6962 12.9106 11.3022 13.3053 11.028 13.7802C10.7538 14.255 10.6091 14.7936 10.6082 15.3419V19.6919C10.6091 20.2404 10.7538 20.779 11.028 21.254C11.3022 21.729 11.6962 22.1237 12.1707 22.3988L15.9375 24.5732C16.4128 24.8467 16.9516 24.9907 17.5 24.9907C18.0484 24.9907 18.5872 24.8467 19.0625 24.5732L22.8294 22.3988C23.3039 22.1237 23.6979 21.729 23.972 21.254C24.2462 20.779 24.391 20.2404 24.3919 19.6919V15.3419C24.391 14.7936 24.2462 14.255 23.972 13.7802C23.6979 13.3053 23.3039 12.9106 22.8294 12.6357ZM16.5625 11.5438C16.8476 11.3792 17.1709 11.2926 17.5 11.2926C17.8292 11.2926 18.1525 11.3792 18.4375 11.5438L22.2044 13.7182C22.2999 13.7786 22.3897 13.8476 22.4725 13.9244L18.6019 16.1588C18.2668 16.352 17.8868 16.4537 17.5 16.4537C17.1132 16.4537 16.7332 16.352 16.3982 16.1588L12.5275 13.9244C12.6104 13.8476 12.7001 13.7786 12.7957 13.7182L16.5625 11.5438ZM12.7957 21.3157C12.5108 21.1506 12.2743 20.9137 12.1097 20.6285C11.9452 20.3433 11.8584 20.0199 11.8582 19.6907V15.3419C11.8625 15.2293 11.8774 15.1174 11.9025 15.0076L15.7732 17.2419C16.115 17.4364 16.4877 17.5706 16.875 17.6388V23.6194C16.7671 23.5864 16.6624 23.5433 16.5625 23.4907L12.7957 21.3157ZM23.1419 19.6907C23.1416 20.0199 23.0549 20.3433 22.8903 20.6285C22.7258 20.9137 22.4893 21.1506 22.2044 21.3157L18.4375 23.4907C18.3376 23.5433 18.233 23.5864 18.125 23.6194V17.6388C18.5123 17.5706 18.8851 17.4364 19.2269 17.2419L23.0975 15.0076C23.1227 15.1174 23.1376 15.2293 23.1419 15.3419V19.6907Z" fill="white"/>
</g>
<defs>
<clipPath id="clip0_3_154">
<rect width="15" height="15" fill="white" transform="translate(10 10)"/>
</clipPath>
</defs>
</svg>
