<svg width="35" height="35" viewBox="0 0 35 35" fill="none" xmlns="http://www.w3.org/2000/svg">
<g clip-path="url(#clip0_2040_32)">
<path d="M17.5 35C27.165 35 35 27.165 35 17.5C35 7.83502 27.165 0 17.5 0C7.83502 0 0 7.83502 0 17.5C0 27.165 7.83502 35 17.5 35Z" fill="#F59E32"/>
<mask id="mask0_2040_32" style="mask-type:luminance" maskUnits="userSpaceOnUse" x="10" y="10" width="15" height="15">
<path d="M25 10H10V25H25V10Z" fill="white"/>
</mask>
<g mask="url(#mask0_2040_32)">
<path d="M17.1875 25C16.724 25.0001 16.2712 24.8612 15.8875 24.6011C15.5039 24.341 15.2071 23.9718 15.0356 23.5412C15.0083 23.4638 14.9965 23.3818 15.0008 23.2999C15.0052 23.2179 15.0257 23.1376 15.0611 23.0635C15.0965 22.9895 15.1461 22.9231 15.2072 22.8683C15.2682 22.8134 15.3395 22.7711 15.4169 22.7437C15.4943 22.7164 15.5763 22.7046 15.6583 22.709C15.7402 22.7133 15.8205 22.7338 15.8946 22.7692C15.9686 22.8046 16.035 22.8542 16.0899 22.9153C16.1447 22.9763 16.187 23.0476 16.2144 23.125C16.5637 24.0481 18.135 23.9056 18.125 22.8125C18.125 22.5639 18.0262 22.3254 17.8504 22.1496C17.6746 21.9738 17.4361 21.875 17.1875 21.875H10.625C10.4592 21.875 10.3003 21.8091 10.1831 21.6919C10.0658 21.5747 10 21.4158 10 21.25C10 21.0842 10.0658 20.9253 10.1831 20.808C10.3003 20.6908 10.4592 20.625 10.625 20.625H17.1875C17.7677 20.625 18.3241 20.8555 18.7343 21.2657C19.1445 21.6759 19.375 22.2323 19.375 22.8125C19.375 23.3927 19.1445 23.9491 18.7343 24.3593C18.3241 24.7695 17.7677 25 17.1875 25ZM22.5 21.875C21.9696 21.8757 21.4512 21.7172 21.0118 21.42C20.5725 21.1229 20.2324 20.7007 20.0356 20.2081C19.9804 20.0518 19.9896 19.88 20.0611 19.7304C20.1326 19.5808 20.2606 19.4658 20.4169 19.4106C20.5732 19.3554 20.745 19.3646 20.8946 19.4361C21.0441 19.5076 21.1592 19.6356 21.2144 19.7919C21.7 21.0306 23.7444 20.8356 23.75 19.375C23.75 19.0435 23.6183 18.7255 23.3839 18.4911C23.1495 18.2567 22.8315 18.125 22.5 18.125H20.625C20.4592 18.125 20.3003 18.0591 20.1831 17.9419C20.0658 17.8247 20 17.6658 20 17.5C20 17.3342 20.0658 17.1753 20.1831 17.058C20.3003 16.9408 20.4592 16.875 20.625 16.875H22.5C25.7975 16.9619 25.795 21.7894 22.5 21.875ZM16.1 19.375C15.9343 19.375 15.7753 19.3091 15.6581 19.1919L15 18.5312L14.3244 19.1919C14.2065 19.3057 14.0486 19.3687 13.8847 19.3673C13.7209 19.3659 13.5641 19.3001 13.4482 19.1843C13.3324 19.0684 13.2666 18.9116 13.2652 18.7477C13.2638 18.5839 13.3268 18.426 13.4406 18.3081L14.1012 17.6475C14.1825 17.5653 14.2746 17.4947 14.375 17.4375V16.7837C14.0639 16.6908 13.7774 16.5299 13.5363 16.3125L12.9375 16.6606C12.9383 16.7724 12.9242 16.8838 12.8956 16.9919L12.6562 17.8944C12.6365 17.975 12.6008 18.0509 12.5514 18.1177C12.5019 18.1844 12.4397 18.2406 12.3683 18.283C12.2969 18.3254 12.2177 18.3531 12.1354 18.3646C12.0532 18.376 11.9695 18.371 11.8892 18.3497C11.8089 18.3284 11.7337 18.2914 11.6679 18.2407C11.6021 18.19 11.547 18.1268 11.506 18.0546C11.4649 17.9824 11.4387 17.9027 11.4287 17.8203C11.4188 17.7378 11.4254 17.6542 11.4481 17.5744L11.6875 16.6712L10.7788 16.4212C10.6973 16.4023 10.6205 16.3672 10.5529 16.318C10.4853 16.2688 10.4282 16.2066 10.3851 16.135C10.3419 16.0633 10.3136 15.9838 10.3018 15.901C10.2899 15.8182 10.2948 15.7339 10.3162 15.6531C10.3375 15.5722 10.3748 15.4965 10.426 15.4303C10.4771 15.3642 10.541 15.3089 10.6138 15.2679C10.6867 15.2269 10.767 15.2009 10.8501 15.1915C10.9332 15.1821 11.0173 15.1894 11.0975 15.2131L12 15.4525C12.1078 15.4802 12.2115 15.5222 12.3081 15.5775L12.8837 15.2425C12.7864 14.8691 12.7886 14.4767 12.89 14.1044L12.3081 13.7656C12.2118 13.821 12.1083 13.8631 12.0006 13.8906L11.0962 14.1294C11.0161 14.153 10.9319 14.1604 10.8489 14.151C10.7658 14.1416 10.6854 14.1156 10.6126 14.0746C10.5397 14.0335 10.4758 13.9783 10.4247 13.9121C10.3736 13.846 10.3362 13.7702 10.3149 13.6894C10.2936 13.6086 10.2887 13.5243 10.3005 13.4415C10.3124 13.3587 10.3407 13.2792 10.3838 13.2075C10.427 13.1359 10.484 13.0737 10.5516 13.0245C10.6193 12.9753 10.6961 12.9402 10.7775 12.9212L11.6813 12.6875L11.4481 11.7737C11.4254 11.6939 11.4188 11.6103 11.4287 11.5278C11.4387 11.4454 11.4649 11.3657 11.506 11.2935C11.547 11.2213 11.6021 11.1581 11.6679 11.1074C11.7337 11.0567 11.8089 11.0197 11.8892 10.9984C11.9695 10.9771 12.0532 10.9721 12.1354 10.9835C12.2177 10.995 12.2969 11.0227 12.3683 11.0651C12.4397 11.1075 12.5019 11.1637 12.5514 11.2304C12.6008 11.2972 12.6365 11.3731 12.6562 11.4537L12.8956 12.3569C12.9242 12.4647 12.9382 12.5759 12.9375 12.6875L13.5544 13.0462C13.7917 12.8368 14.0717 12.6816 14.375 12.5912V11.9375C14.2746 11.8811 14.1825 11.811 14.1012 11.7294L13.4406 11.0669C13.3268 10.949 13.2638 10.7911 13.2652 10.6272C13.2666 10.4634 13.3324 10.3066 13.4482 10.1907C13.5641 10.0748 13.7209 10.0091 13.8847 10.0077C14.0486 10.0063 14.2065 10.0693 14.3244 10.1831L14.9856 10.8437L15.6581 10.1831C15.7158 10.1234 15.7847 10.0758 15.861 10.0431C15.9373 10.0103 16.0193 9.99305 16.1022 9.99233C16.1852 9.99161 16.2675 10.0074 16.3443 10.0389C16.4212 10.0703 16.4909 10.1167 16.5496 10.1754C16.6083 10.2341 16.6547 10.3038 16.6861 10.3806C16.7176 10.4575 16.7334 10.5398 16.7327 10.6227C16.7319 10.7057 16.7147 10.7877 16.6819 10.864C16.6492 10.9402 16.6016 11.0092 16.5419 11.0669L15.8812 11.7275C15.8047 11.8043 15.7186 11.8709 15.625 11.9256V12.5912C15.9284 12.6817 16.2084 12.8372 16.4456 13.0469L17.0625 12.6875C17.0617 12.5757 17.0758 12.4643 17.1044 12.3562L17.3438 11.4531C17.3635 11.3725 17.3992 11.2965 17.4486 11.2298C17.4981 11.1631 17.5603 11.1069 17.6317 11.0645C17.7031 11.0221 17.7823 10.9944 17.8646 10.9829C17.9468 10.9715 18.0305 10.9765 18.1108 10.9978C18.1911 11.019 18.2663 11.0561 18.3321 11.1068C18.3979 11.1574 18.453 11.2207 18.494 11.2929C18.5351 11.3651 18.5613 11.4447 18.5713 11.5272C18.5812 11.6096 18.5746 11.6932 18.5519 11.7731L18.3125 12.6769L19.2212 12.9269C19.3027 12.9458 19.3795 12.9809 19.4471 13.0301C19.5147 13.0793 19.5718 13.1415 19.6149 13.2132C19.6581 13.2848 19.6864 13.3643 19.6982 13.4471C19.7101 13.5299 19.7052 13.6142 19.6838 13.695C19.6625 13.7759 19.6252 13.8516 19.574 13.9178C19.5229 13.9839 19.459 14.0392 19.3862 14.0802C19.3133 14.1212 19.233 14.1472 19.1499 14.1566C19.0668 14.166 18.9827 14.1587 18.9025 14.135L18 13.8956C17.8921 13.8682 17.7884 13.8261 17.6919 13.7706L17.11 14.1094C17.2114 14.4817 17.2136 14.8741 17.1163 15.2475L17.6919 15.5825C17.7884 15.5273 17.8918 15.4853 17.9994 15.4575L18.9038 15.2187C18.9839 15.1951 19.0681 15.1877 19.1511 15.1971C19.2342 15.2065 19.3146 15.2325 19.3874 15.2735C19.4603 15.3146 19.5242 15.3698 19.5753 15.436C19.6264 15.5021 19.6638 15.5779 19.6851 15.6587C19.7064 15.7395 19.7113 15.8239 19.6995 15.9066C19.6876 15.9894 19.6593 16.0689 19.6162 16.1406C19.573 16.2122 19.516 16.2744 19.4484 16.3236C19.3807 16.3728 19.3039 16.4079 19.2225 16.4269L18.3194 16.6656L18.5525 17.5794C18.5752 17.6592 18.5818 17.7428 18.5719 17.8253C18.562 17.9077 18.5357 17.9874 18.4946 18.0596C18.4536 18.1318 18.3985 18.195 18.3327 18.2457C18.2669 18.2964 18.1917 18.3334 18.1114 18.3547C18.0311 18.376 17.9474 18.381 17.8652 18.3696C17.7829 18.3581 17.7038 18.3304 17.6324 18.288C17.5609 18.2456 17.4987 18.1894 17.4493 18.1227C17.3998 18.0559 17.3642 17.98 17.3444 17.8994L17.105 16.9962C17.0764 16.8882 17.0623 16.7768 17.0631 16.665L16.4644 16.3169C16.2226 16.5328 15.9359 16.6922 15.625 16.7837V17.4494C15.7186 17.5044 15.8049 17.571 15.8819 17.6475L16.5419 18.3081C16.6293 18.3955 16.6888 18.5069 16.7129 18.6281C16.737 18.7493 16.7246 18.875 16.6773 18.9891C16.63 19.1033 16.5499 19.2009 16.4472 19.2696C16.3444 19.3383 16.2236 19.375 16.1 19.375ZM15 13.75C14.7514 13.75 14.5129 13.8488 14.3371 14.0246C14.1613 14.2004 14.0625 14.4388 14.0625 14.6875C14.0625 14.9361 14.1613 15.1746 14.3371 15.3504C14.5129 15.5262 14.7514 15.625 15 15.625C15.2486 15.625 15.4871 15.5262 15.6629 15.3504C15.8387 15.1746 15.9375 14.9361 15.9375 14.6875C15.9375 14.4388 15.8387 14.2004 15.6629 14.0246C15.4871 13.8488 15.2486 13.75 15 13.75ZM22.8125 15.625H21.25C21.0842 15.625 20.9253 15.5591 20.8081 15.4419C20.6908 15.3247 20.625 15.1658 20.625 15C20.625 14.8342 20.6908 14.6753 20.8081 14.558C20.9253 14.4408 21.0842 14.375 21.25 14.375H22.8125C23.0611 14.375 23.2996 14.2762 23.4754 14.1004C23.6512 13.9246 23.75 13.6861 23.75 13.4375C23.7385 13.2351 23.6652 13.0411 23.5399 12.8817C23.4147 12.7223 23.2436 12.6051 23.0497 12.5461C22.8557 12.487 22.6484 12.4888 22.4555 12.5513C22.2627 12.6138 22.0936 12.734 21.9712 12.8956C21.8663 13.024 21.7147 13.1054 21.5497 13.122C21.3847 13.1386 21.2199 13.089 21.0916 12.9841C20.9632 12.8791 20.8817 12.7275 20.8652 12.5625C20.8486 12.3976 20.8982 12.2327 21.0031 12.1044C22.26 10.4937 25.0275 11.3369 25 13.4375C25 14.0177 24.7695 14.5741 24.3593 14.9843C23.9491 15.3945 23.3927 15.625 22.8125 15.625Z" fill="white"/>
</g>
</g>
<defs>
<clipPath id="clip0_2040_32">
<rect width="35" height="35" fill="white"/>
</clipPath>
</defs>
</svg>
