<svg width="35" height="35" viewBox="0 0 35 35" fill="none" xmlns="http://www.w3.org/2000/svg">
<g clip-path="url(#clip0_2040_25)">
<path d="M17.5 35C27.165 35 35 27.165 35 17.5C35 7.83502 27.165 0 17.5 0C7.83502 0 0 7.83502 0 17.5C0 27.165 7.83502 35 17.5 35Z" fill="#F59E32"/>
<mask id="mask0_2040_25" style="mask-type:luminance" maskUnits="userSpaceOnUse" x="10" y="10" width="15" height="15">
<path d="M25 10H10V25H25V10Z" fill="white"/>
</mask>
<g mask="url(#mask0_2040_25)">
<path d="M13.125 12.5C13.125 12.155 13.405 11.875 13.75 11.875H15V10.625C15 10.28 15.28 10 15.625 10C15.97 10 16.25 10.28 16.25 10.625V11.875H17.5C17.845 11.875 18.125 12.155 18.125 12.5C18.125 12.845 17.845 13.125 17.5 13.125H16.25V14.375C16.25 14.72 15.97 15 15.625 15C15.28 15 15 14.72 15 14.375V13.125H13.75C13.405 13.125 13.125 12.845 13.125 12.5ZM24.5225 18.1344L20.2694 22.9075C19.0844 24.2375 17.3838 25 15.6031 25H12.5C11.1213 25 10 23.8787 10 22.5V19.375C10 17.9963 11.1213 16.875 12.5 16.875H18.0363C18.7481 16.875 19.3725 17.2556 19.7169 17.8237L21.7269 15.615C22.0656 15.2431 22.5281 15.025 23.0306 15.0019C23.5325 14.9738 24.0138 15.1519 24.3856 15.4906C25.1444 16.1825 25.2056 17.3688 24.5225 18.1344ZM23.5438 16.415C23.4194 16.3019 23.2569 16.2481 23.0888 16.2512C22.92 16.2594 22.765 16.3319 22.6513 16.4569L19.885 19.4969C19.6444 20.1663 19.0481 20.6788 18.3138 20.7837L15.0881 21.2444C14.7475 21.2937 14.43 21.0562 14.3813 20.7144C14.3325 20.3725 14.57 20.0562 14.9113 20.0075L18.1369 19.5469C18.4863 19.4969 18.75 19.1931 18.75 18.84C18.75 18.4462 18.43 18.1263 18.0363 18.1263H12.5C11.8106 18.1263 11.25 18.6869 11.25 19.3763V22.5013C11.25 23.1906 11.8106 23.7513 12.5 23.7513H15.6031C17.0275 23.7513 18.3888 23.1412 19.3363 22.0775L23.5894 17.3038C23.8188 17.0462 23.7981 16.6475 23.5438 16.415Z" fill="white"/>
</g>
</g>
<defs>
<clipPath id="clip0_2040_25">
<rect width="35" height="35" fill="white"/>
</clipPath>
</defs>
</svg>
