<svg width="35" height="35" viewBox="0 0 35 35" fill="none" xmlns="http://www.w3.org/2000/svg">
<circle cx="17.5" cy="17.5" r="17.5" fill="#F59E32"/>
<g clip-path="url(#clip0_3_209)">
<path d="M20.625 10C20.4592 10 20.3003 10.0658 20.1831 10.1831C20.0658 10.3003 20 10.4592 20 10.625C20 12.4681 18.3856 13.125 16.875 13.125H12.5C11.837 13.125 11.2011 13.3884 10.7322 13.8572C10.2634 14.3261 10 14.962 10 15.625V16.875C10.0014 17.2492 10.0872 17.6183 10.251 17.9547C10.4148 18.2912 10.6525 18.5863 10.9463 18.8181L13.1788 23.8006C13.3375 24.1576 13.5964 24.4608 13.9239 24.6737C14.2515 24.8865 14.6337 24.9999 15.0244 25C15.3352 24.9998 15.641 24.9219 15.914 24.7733C16.1871 24.6247 16.4186 24.4102 16.5875 24.1494C16.7565 23.8885 16.8575 23.5895 16.8814 23.2796C16.9053 22.9697 16.8513 22.6587 16.7244 22.375L15.3494 19.375H16.875C18.3856 19.375 20 20.0319 20 21.875C20 22.0408 20.0658 22.1997 20.1831 22.3169C20.3003 22.4342 20.4592 22.5 20.625 22.5C20.7908 22.5 20.9497 22.4342 21.0669 22.3169C21.1842 22.1997 21.25 22.0408 21.25 21.875V10.625C21.25 10.4592 21.1842 10.3003 21.0669 10.1831C20.9497 10.0658 20.7908 10 20.625 10ZM15.5856 22.8869C15.627 22.9804 15.6444 23.0827 15.6363 23.1846C15.6281 23.2866 15.5947 23.3848 15.5389 23.4705C15.4832 23.5563 15.4069 23.6267 15.3171 23.6755C15.2272 23.7243 15.1266 23.7499 15.0244 23.75C14.8752 23.7499 14.7294 23.7065 14.6044 23.6251C14.4795 23.5436 14.3809 23.4277 14.3206 23.2913L12.5656 19.375H13.9744L15.5856 22.8869ZM20 19.125C19.1071 18.437 18.0015 18.0832 16.875 18.125H12.5C12.1685 18.125 11.8505 17.9933 11.6161 17.7589C11.3817 17.5245 11.25 17.2065 11.25 16.875V15.625C11.25 15.2935 11.3817 14.9755 11.6161 14.7411C11.8505 14.5067 12.1685 14.375 12.5 14.375H16.875C18.0011 14.4177 19.1066 14.065 20 13.3781V19.125ZM24.9375 19.6575C24.9008 19.731 24.8501 19.7965 24.7881 19.8504C24.7261 19.9042 24.654 19.9453 24.5762 19.9713C24.4983 19.9973 24.416 20.0077 24.3341 20.0019C24.2522 19.9961 24.1722 19.9742 24.0988 19.9375L22.8488 19.3125C22.7004 19.2384 22.5876 19.1084 22.535 18.9511C22.4825 18.7938 22.4947 18.6221 22.5688 18.4738C22.6428 18.3254 22.7728 18.2125 22.9301 18.16C23.0874 18.1075 23.2591 18.1197 23.4075 18.1937L24.6575 18.8187C24.8051 18.8928 24.9174 19.0222 24.9698 19.1788C25.0223 19.3354 25.0107 19.5064 24.9375 19.6544V19.6575ZM22.5688 14.0325C22.532 13.959 22.5101 13.8791 22.5043 13.7972C22.4985 13.7153 22.5089 13.633 22.5349 13.5551C22.5609 13.4772 22.602 13.4052 22.6559 13.3432C22.7097 13.2812 22.7753 13.2304 22.8488 13.1938L24.0988 12.5688C24.2471 12.4947 24.4188 12.4825 24.5761 12.535C24.7334 12.5875 24.8634 12.7004 24.9375 12.8488C25.0116 12.9971 25.0237 13.1688 24.9712 13.3261C24.9187 13.4834 24.8059 13.6134 24.6575 13.6875L23.4075 14.3125C23.3341 14.3492 23.2541 14.3711 23.1722 14.3769C23.0903 14.3827 23.008 14.3723 22.9301 14.3463C22.8522 14.3203 22.7802 14.2792 22.7182 14.2254C22.6562 14.1715 22.6054 14.106 22.5688 14.0325ZM22.5 16.25C22.5 16.0842 22.5659 15.9253 22.6831 15.8081C22.8003 15.6908 22.9592 15.625 23.125 15.625H24.375C24.5408 15.625 24.6997 15.6908 24.8169 15.8081C24.9342 15.9253 25 16.0842 25 16.25C25 16.4158 24.9342 16.5747 24.8169 16.6919C24.6997 16.8092 24.5408 16.875 24.375 16.875H23.125C22.9592 16.875 22.8003 16.8092 22.6831 16.6919C22.5659 16.5747 22.5 16.4158 22.5 16.25Z" fill="white"/>
</g>
<defs>
<clipPath id="clip0_3_209">
<rect width="15" height="15" fill="white" transform="translate(10 10)"/>
</clipPath>
</defs>
</svg>
