<svg width="35" height="35" viewBox="0 0 35 35" fill="none" xmlns="http://www.w3.org/2000/svg">
<circle cx="17.5" cy="17.5" r="17.5" fill="#F59E32"/>
<g clip-path="url(#clip0_3_177)">
<path d="M18.125 18.865V15C18.125 14.8343 18.0592 14.6753 17.9419 14.5581C17.8247 14.4409 17.6658 14.375 17.5 14.375C17.3342 14.375 17.1753 14.4409 17.0581 14.5581C16.9409 14.6753 16.875 14.8343 16.875 15V18.865C16.459 19.0124 16.1086 19.3021 15.8855 19.6829C15.6624 20.0636 15.581 20.511 15.6558 20.9459C15.7306 21.3808 15.9567 21.7753 16.2941 22.0597C16.6316 22.3441 17.0587 22.5001 17.5 22.5001C17.9413 22.5001 18.3684 22.3441 18.7059 22.0597C19.0433 21.7753 19.2694 21.3808 19.3442 20.9459C19.419 20.511 19.3376 20.0636 19.1145 19.6829C18.8914 19.3021 18.541 19.0124 18.125 18.865ZM20.625 17.5694V13.125C20.4931 8.99441 14.5056 9.00003 14.375 13.125V17.5694C13.7721 18.1848 13.3643 18.9644 13.2027 19.8106C13.0411 20.6568 13.1329 21.5319 13.4666 22.3261C13.8004 23.1203 14.3611 23.7984 15.0787 24.2751C15.7962 24.7519 16.6385 25.0063 17.5 25.0063C18.3615 25.0063 19.2038 24.7519 19.9213 24.2751C20.6389 23.7984 21.1996 23.1203 21.5334 22.3261C21.8671 21.5319 21.9589 20.6568 21.7973 19.8106C21.6357 18.9644 21.2279 18.1848 20.625 17.5694ZM17.5 23.75C16.871 23.743 16.2586 23.5469 15.7424 23.1873C15.2262 22.8277 14.8301 22.3212 14.6056 21.7335C14.381 21.1459 14.3384 20.5043 14.4831 19.8921C14.6279 19.2799 14.9535 18.7254 15.4175 18.3007C15.4828 18.2421 15.535 18.1704 15.5708 18.0902C15.6065 18.0101 15.625 17.9234 15.625 17.8357V13.125C15.625 12.6278 15.8225 12.1508 16.1742 11.7992C16.5258 11.4476 17.0027 11.25 17.5 11.25C17.9973 11.25 18.4742 11.4476 18.8258 11.7992C19.1775 12.1508 19.375 12.6278 19.375 13.125V17.8357C19.375 17.9234 19.3935 18.0101 19.4292 18.0902C19.465 18.1704 19.5172 18.2421 19.5825 18.3007C20.0465 18.7254 20.3721 19.2799 20.5169 19.8921C20.6617 20.5043 20.619 21.1459 20.3944 21.7335C20.1699 22.3212 19.7738 22.8277 19.2576 23.1873C18.7414 23.5469 18.129 23.743 17.5 23.75Z" fill="white"/>
</g>
<defs>
<clipPath id="clip0_3_177">
<rect width="15" height="15" fill="white" transform="translate(10 10)"/>
</clipPath>
</defs>
</svg>
