<svg width="35" height="35" viewBox="0 0 35 35" fill="none" xmlns="http://www.w3.org/2000/svg">
<circle cx="17.5" cy="17.5" r="17.5" fill="#F59E32"/>
<g clip-path="url(#clip0_3_216)">
<path d="M15.625 25H10.625C10.4592 25 10.3003 24.9342 10.1831 24.8169C10.0658 24.6997 10 24.5408 10 24.375C10 24.2092 10.0658 24.0503 10.1831 23.9331C10.3003 23.8158 10.4592 23.75 10.625 23.75H15.625C15.7908 23.75 15.9497 23.8158 16.0669 23.9331C16.1842 24.0503 16.25 24.2092 16.25 24.375C16.25 24.5408 16.1842 24.6997 16.0669 24.8169C15.9497 24.9342 15.7908 25 15.625 25Z" fill="white"/>
<path d="M14.375 22.5H10.625C10.4592 22.5 10.3003 22.4342 10.1831 22.3169C10.0658 22.1997 10 22.0408 10 21.875C10 21.7092 10.0658 21.5503 10.1831 21.4331C10.3003 21.3158 10.4592 21.25 10.625 21.25H14.375C14.5408 21.25 14.6997 21.3158 14.8169 21.4331C14.9342 21.5503 15 21.7092 15 21.875C15 22.0408 14.9342 22.1997 14.8169 22.3169C14.6997 22.4342 14.5408 22.5 14.375 22.5Z" fill="white"/>
<path d="M13.125 20H10.625C10.4592 20 10.3003 19.9342 10.1831 19.8169C10.0658 19.6997 10 19.5408 10 19.375C10 19.2092 10.0658 19.0503 10.1831 18.9331C10.3003 18.8158 10.4592 18.75 10.625 18.75H13.125C13.2908 18.75 13.4497 18.8158 13.5669 18.9331C13.6842 19.0503 13.75 19.2092 13.75 19.375C13.75 19.5408 13.6842 19.6997 13.5669 19.8169C13.4497 19.9342 13.2908 20 13.125 20Z" fill="white"/>
<path d="M18.125 24.9719C17.9592 24.9792 17.7973 24.9205 17.6749 24.8085C17.5525 24.6965 17.4796 24.5404 17.4722 24.3747C17.4648 24.2089 17.5236 24.047 17.6356 23.9246C17.7476 23.8022 17.9036 23.7292 18.0694 23.7219C19.2522 23.6136 20.3796 23.1706 21.3197 22.4447C22.2598 21.7188 22.9736 20.7401 23.3774 19.6231C23.7813 18.5062 23.8586 17.2973 23.6002 16.138C23.3417 14.9787 22.7583 13.9171 21.9183 13.0774C21.0782 12.2378 20.0163 11.6549 18.8569 11.397C17.6976 11.1391 16.4887 11.2169 15.3719 11.6213C14.2552 12.0257 13.2767 12.7399 12.5513 13.6803C11.8258 14.6207 11.3833 15.7484 11.2756 16.9312C11.2607 17.0963 11.1808 17.2487 11.0535 17.3549C10.9262 17.4611 10.762 17.5124 10.5969 17.4975C10.4318 17.4826 10.2794 17.4027 10.1732 17.2754C10.067 17.1481 10.0157 16.9838 10.0306 16.8187C10.2049 14.8958 11.1141 13.1142 12.569 11.8447C14.0238 10.5752 15.9121 9.91577 17.841 10.0036C19.7698 10.0913 21.5904 10.9196 22.924 12.316C24.2575 13.7123 25.0011 15.5692 25 17.5C25.0096 19.3739 24.3134 21.1828 23.0499 22.5669C21.7865 23.9509 20.0483 24.8086 18.1812 24.9694C18.1625 24.9712 18.1431 24.9719 18.125 24.9719Z" fill="white"/>
<path d="M17.5 13.75C17.3342 13.75 17.1753 13.8158 17.0581 13.9331C16.9408 14.0503 16.875 14.2092 16.875 14.375V17.5C16.875 17.6657 16.9409 17.8247 17.0581 17.9419L18.9331 19.8169C19.051 19.9307 19.2089 19.9937 19.3728 19.9923C19.5366 19.9909 19.6934 19.9251 19.8093 19.8093C19.9251 19.6934 19.9909 19.5366 19.9923 19.3728C19.9937 19.2089 19.9307 19.051 19.8169 18.9331L18.125 17.2413V14.375C18.125 14.2092 18.0592 14.0503 17.9419 13.9331C17.8247 13.8158 17.6658 13.75 17.5 13.75Z" fill="white"/>
</g>
<defs>
<clipPath id="clip0_3_216">
<rect width="15" height="15" fill="white" transform="translate(10 10)"/>
</clipPath>
</defs>
</svg>
