<svg width="35" height="35" viewBox="0 0 35 35" fill="none" xmlns="http://www.w3.org/2000/svg">
<circle cx="17.5" cy="17.5" r="16.75" stroke="#F59E32" stroke-width="1.5"/>
<path d="M11.656 24V13.44L12.344 14.192H9.128V12.8H13.24V24H11.656ZM20.2659 24.128C19.3912 24.128 18.6072 23.904 17.9139 23.456C17.2312 23.008 16.6872 22.3573 16.2819 21.504C15.8872 20.6507 15.6899 19.616 15.6899 18.4C15.6899 17.184 15.8872 16.1493 16.2819 15.296C16.6872 14.4427 17.2312 13.792 17.9139 13.344C18.6072 12.896 19.3912 12.672 20.2659 12.672C21.1299 12.672 21.9085 12.896 22.6019 13.344C23.2952 13.792 23.8392 14.4427 24.2339 15.296C24.6285 16.1493 24.8259 17.184 24.8259 18.4C24.8259 19.616 24.6285 20.6507 24.2339 21.504C23.8392 22.3573 23.2952 23.008 22.6019 23.456C21.9085 23.904 21.1299 24.128 20.2659 24.128ZM20.2659 22.704C20.8525 22.704 21.3645 22.544 21.8019 22.224C22.2499 21.904 22.5965 21.424 22.8419 20.784C23.0979 20.144 23.2259 19.3493 23.2259 18.4C23.2259 17.4507 23.0979 16.656 22.8419 16.016C22.5965 15.376 22.2499 14.896 21.8019 14.576C21.3645 14.256 20.8525 14.096 20.2659 14.096C19.6792 14.096 19.1619 14.256 18.7139 14.576C18.2659 14.896 17.9139 15.376 17.6579 16.016C17.4125 16.656 17.2899 17.4507 17.2899 18.4C17.2899 19.3493 17.4125 20.144 17.6579 20.784C17.9139 21.424 18.2659 21.904 18.7139 22.224C19.1619 22.544 19.6792 22.704 20.2659 22.704Z" fill="#F59E32"/>
</svg>
