<svg width="35" height="35" viewBox="0 0 35 35" fill="none" xmlns="http://www.w3.org/2000/svg">
<circle cx="17.5" cy="17.5" r="16.75" stroke="#F59E32" stroke-width="1.5"/>
<path d="M14.592 24V22.912L19.152 18.512C19.5573 18.128 19.856 17.792 20.048 17.504C20.2507 17.2053 20.384 16.9333 20.448 16.688C20.5227 16.432 20.56 16.1867 20.56 15.952C20.56 15.376 20.3573 14.9227 19.952 14.592C19.5467 14.2613 18.9547 14.096 18.176 14.096C17.5787 14.096 17.04 14.1973 16.56 14.4C16.08 14.592 15.664 14.896 15.312 15.312L14.224 14.368C14.6507 13.824 15.2213 13.408 15.936 13.12C16.6613 12.8213 17.456 12.672 18.32 12.672C19.0987 12.672 19.776 12.8 20.352 13.056C20.928 13.3013 21.3707 13.6587 21.68 14.128C22 14.5973 22.16 15.152 22.16 15.792C22.16 16.1547 22.112 16.512 22.016 16.864C21.92 17.216 21.7387 17.5893 21.472 17.984C21.2053 18.3787 20.8213 18.8213 20.32 19.312L16.256 23.232L15.872 22.608H22.64V24H14.592Z" fill="#F59E32"/>
</svg>
