<svg width="35" height="35" viewBox="0 0 35 35" fill="none" xmlns="http://www.w3.org/2000/svg">
<circle cx="17.5" cy="17.5" r="16.75" stroke="#F59E32" stroke-width="1.5"/>
<path d="M18.192 24.128C17.4027 24.128 16.6347 24.0053 15.888 23.76C15.152 23.5147 14.5493 23.184 14.08 22.768L14.816 21.504C15.1893 21.856 15.6747 22.144 16.272 22.368C16.8693 22.592 17.5093 22.704 18.192 22.704C19.024 22.704 19.6693 22.528 20.128 22.176C20.5973 21.8133 20.832 21.328 20.832 20.72C20.832 20.1333 20.608 19.664 20.16 19.312C19.7227 18.9493 19.024 18.768 18.064 18.768H17.168V17.648L20.496 13.552L20.72 14.192H14.592V12.8H21.984V13.888L18.672 17.968L17.84 17.472H18.368C19.7227 17.472 20.736 17.776 21.408 18.384C22.0907 18.992 22.432 19.7653 22.432 20.704C22.432 21.3333 22.2773 21.9093 21.968 22.432C21.6587 22.9547 21.1893 23.3707 20.56 23.68C19.9413 23.9787 19.152 24.128 18.192 24.128Z" fill="#F59E32"/>
</svg>
