<svg width="35" height="35" viewBox="0 0 35 35" fill="none" xmlns="http://www.w3.org/2000/svg">
<circle cx="17.5" cy="17.5" r="16.75" stroke="#F59E32" stroke-width="1.5"/>
<path d="M18.384 24.128C17.5947 24.128 16.8267 24.0053 16.08 23.76C15.344 23.5147 14.7413 23.184 14.272 22.768L15.008 21.504C15.3813 21.856 15.8667 22.144 16.464 22.368C17.0613 22.592 17.696 22.704 18.368 22.704C19.2213 22.704 19.8773 22.5227 20.336 22.16C20.7947 21.7973 21.024 21.312 21.024 20.704C21.024 20.288 20.9227 19.9253 20.72 19.616C20.5173 19.3067 20.1653 19.072 19.664 18.912C19.1733 18.7413 18.496 18.656 17.632 18.656H15.088L15.68 12.8H22V14.192H16.272L17.104 13.408L16.64 18.032L15.808 17.264H17.968C19.088 17.264 19.9893 17.408 20.672 17.696C21.3547 17.984 21.8507 18.384 22.16 18.896C22.4693 19.3973 22.624 19.9787 22.624 20.64C22.624 21.28 22.4693 21.8667 22.16 22.4C21.8507 22.9227 21.3813 23.344 20.752 23.664C20.1333 23.9733 19.344 24.128 18.384 24.128Z" fill="#F59E32"/>
</svg>
