<svg width="35" height="35" viewBox="0 0 35 35" fill="none" xmlns="http://www.w3.org/2000/svg">
<circle cx="17.5" cy="17.5" r="16.75" stroke="#F59E32" stroke-width="1.5"/>
<path d="M19.472 24.128C18.48 24.128 17.632 23.9093 16.928 23.472C16.224 23.0347 15.6853 22.4053 15.312 21.584C14.9493 20.752 14.768 19.7387 14.768 18.544C14.768 17.2747 14.992 16.2027 15.44 15.328C15.888 14.4533 16.512 13.792 17.312 13.344C18.112 12.896 19.0293 12.672 20.064 12.672C20.5973 12.672 21.104 12.7253 21.584 12.832C22.0747 12.9387 22.496 13.104 22.848 13.328L22.24 14.576C21.952 14.3733 21.6213 14.2347 21.248 14.16C20.8853 14.0853 20.5013 14.048 20.096 14.048C18.9547 14.048 18.048 14.4053 17.376 15.12C16.704 15.824 16.368 16.8747 16.368 18.272C16.368 18.496 16.3787 18.7627 16.4 19.072C16.4213 19.3813 16.4747 19.6853 16.56 19.984L16.016 19.44C16.176 18.9493 16.4267 18.5387 16.768 18.208C17.12 17.8667 17.536 17.616 18.016 17.456C18.5067 17.2853 19.0347 17.2 19.6 17.2C20.3467 17.2 21.008 17.3387 21.584 17.616C22.16 17.8933 22.6133 18.288 22.944 18.8C23.2747 19.3013 23.44 19.8987 23.44 20.592C23.44 21.3067 23.264 21.9307 22.912 22.464C22.56 22.9973 22.0853 23.408 21.488 23.696C20.8907 23.984 20.2187 24.128 19.472 24.128ZM19.408 22.832C19.8987 22.832 20.3253 22.7413 20.688 22.56C21.0613 22.3787 21.3547 22.128 21.568 21.808C21.7813 21.4773 21.888 21.0933 21.888 20.656C21.888 19.9947 21.6587 19.472 21.2 19.088C20.7413 18.6933 20.1173 18.496 19.328 18.496C18.816 18.496 18.368 18.592 17.984 18.784C17.6 18.976 17.296 19.2373 17.072 19.568C16.8587 19.888 16.752 20.256 16.752 20.672C16.752 21.056 16.8533 21.4133 17.056 21.744C17.2587 22.064 17.5573 22.3253 17.952 22.528C18.3467 22.7307 18.832 22.832 19.408 22.832Z" fill="#F59E32"/>
</svg>
