<svg width="35" height="35" viewBox="0 0 35 35" fill="none" xmlns="http://www.w3.org/2000/svg">
<circle cx="17.5" cy="17.5" r="16.75" stroke="#F59E32" stroke-width="1.5"/>
<path d="M19.136 24.128C18.2293 24.128 17.4453 23.9947 16.784 23.728C16.1227 23.4613 15.6107 23.0827 15.248 22.592C14.8853 22.0907 14.704 21.504 14.704 20.832C14.704 20.1707 14.8747 19.6107 15.216 19.152C15.568 18.6827 16.0747 18.3307 16.736 18.096C17.3973 17.8507 18.1973 17.728 19.136 17.728C20.0747 17.728 20.8747 17.8507 21.536 18.096C22.208 18.3307 22.72 18.6827 23.072 19.152C23.424 19.6213 23.6 20.1813 23.6 20.832C23.6 21.504 23.4187 22.0907 23.056 22.592C22.6933 23.0827 22.176 23.4613 21.504 23.728C20.832 23.9947 20.0427 24.128 19.136 24.128ZM19.136 22.832C20.032 22.832 20.7307 22.6507 21.232 22.288C21.744 21.9147 22 21.4133 22 20.784C22 20.1653 21.744 19.68 21.232 19.328C20.7307 18.9653 20.032 18.784 19.136 18.784C18.2507 18.784 17.5573 18.9653 17.056 19.328C16.5547 19.68 16.304 20.1653 16.304 20.784C16.304 21.4133 16.5547 21.9147 17.056 22.288C17.5573 22.6507 18.2507 22.832 19.136 22.832ZM19.136 18.592C18.2827 18.592 17.5573 18.48 16.96 18.256C16.3627 18.0213 15.904 17.6907 15.584 17.264C15.264 16.8267 15.104 16.3093 15.104 15.712C15.104 15.0827 15.2693 14.544 15.6 14.096C15.9413 13.6373 16.416 13.2853 17.024 13.04C17.632 12.7947 18.336 12.672 19.136 12.672C19.9467 12.672 20.656 12.7947 21.264 13.04C21.872 13.2853 22.3467 13.6373 22.688 14.096C23.0293 14.544 23.2 15.0827 23.2 15.712C23.2 16.3093 23.04 16.8267 22.72 17.264C22.4 17.6907 21.936 18.0213 21.328 18.256C20.72 18.48 19.9893 18.592 19.136 18.592ZM19.136 17.568C19.9147 17.568 20.5227 17.408 20.96 17.088C21.408 16.768 21.632 16.3307 21.632 15.776C21.632 15.2107 21.4027 14.768 20.944 14.448C20.4853 14.128 19.8827 13.968 19.136 13.968C18.3893 13.968 17.792 14.128 17.344 14.448C16.9067 14.768 16.688 15.2107 16.688 15.776C16.688 16.3307 16.9013 16.768 17.328 17.088C17.7653 17.408 18.368 17.568 19.136 17.568Z" fill="#F59E32"/>
</svg>
