<svg width="35" height="35" viewBox="0 0 35 35" fill="none" xmlns="http://www.w3.org/2000/svg">
<circle cx="17.5" cy="17.5" r="16.75" stroke="#F59E32" stroke-width="1.5"/>
<path d="M18.4 12.672C19.4133 12.672 20.2667 12.8907 20.96 13.328C21.664 13.7653 22.1973 14.4 22.56 15.232C22.9227 16.0533 23.104 17.0613 23.104 18.256C23.104 19.5253 22.88 20.5973 22.432 21.472C21.984 22.3467 21.3653 23.008 20.576 23.456C19.7867 23.904 18.864 24.128 17.808 24.128C17.2853 24.128 16.7787 24.0747 16.288 23.968C15.808 23.8613 15.3867 23.696 15.024 23.472L15.632 22.224C15.9307 22.416 16.2613 22.5547 16.624 22.64C16.9973 22.7147 17.3867 22.752 17.792 22.752C18.9227 22.752 19.824 22.4 20.496 21.696C21.168 20.9813 21.504 19.9253 21.504 18.528C21.504 18.304 21.4933 18.0373 21.472 17.728C21.4507 17.4187 21.4027 17.1147 21.328 16.816L21.856 17.36C21.7067 17.8507 21.456 18.2667 21.104 18.608C20.7627 18.9387 20.3467 19.1893 19.856 19.36C19.376 19.52 18.848 19.6 18.272 19.6C17.536 19.6 16.88 19.4613 16.304 19.184C15.728 18.9067 15.2747 18.5173 14.944 18.016C14.6133 17.504 14.448 16.9013 14.448 16.208C14.448 15.4827 14.6187 14.8587 14.96 14.336C15.312 13.8027 15.7867 13.392 16.384 13.104C16.992 12.816 17.664 12.672 18.4 12.672ZM18.464 13.968C17.984 13.968 17.5573 14.0587 17.184 14.24C16.8107 14.4213 16.5173 14.672 16.304 14.992C16.1013 15.312 16 15.696 16 16.144C16 16.8053 16.2293 17.3333 16.688 17.728C17.1467 18.112 17.7653 18.304 18.544 18.304C19.056 18.304 19.504 18.208 19.888 18.016C20.2827 17.824 20.5867 17.5627 20.8 17.232C21.024 16.9013 21.136 16.5333 21.136 16.128C21.136 15.7333 21.0347 15.376 20.832 15.056C20.6293 14.736 20.3307 14.4747 19.936 14.272C19.5413 14.0693 19.0507 13.968 18.464 13.968Z" fill="#F59E32"/>
</svg>
