<svg width="40" height="40" viewBox="0 0 40 40" fill="none" xmlns="http://www.w3.org/2000/svg">
<rect x="40" y="40" width="40" height="40" rx="20" transform="rotate(-180 40 40)" fill="#F59E32"/>
<path d="M18.8333 20.5917C18.7552 20.5142 18.6932 20.422 18.6509 20.3205C18.6086 20.2189 18.5868 20.11 18.5868 20C18.5868 19.89 18.6086 19.7811 18.6509 19.6795C18.6932 19.578 18.7552 19.4858 18.8333 19.4083L22.6583 15.5917C22.7364 15.5142 22.7984 15.422 22.8407 15.3205C22.883 15.2189 22.9048 15.11 22.9048 15C22.9048 14.89 22.883 14.7811 22.8407 14.6795C22.7984 14.578 22.7364 14.4858 22.6583 14.4083C22.5022 14.2531 22.291 14.166 22.0708 14.166C21.8507 14.166 21.6395 14.2531 21.4833 14.4083L17.6583 18.2333C17.1901 18.7021 16.9272 19.3375 16.9272 20C16.9272 20.6625 17.1901 21.2979 17.6583 21.7667L21.4833 25.5917C21.6385 25.7456 21.848 25.8324 22.0666 25.8333C22.1763 25.834 22.285 25.813 22.3866 25.7715C22.4881 25.73 22.5804 25.6689 22.6583 25.5917C22.7364 25.5142 22.7984 25.422 22.8407 25.3205C22.883 25.2189 22.9048 25.11 22.9048 25C22.9048 24.89 22.883 24.7811 22.8407 24.6795C22.7984 24.578 22.7364 24.4858 22.6583 24.4083L18.8333 20.5917Z" fill="white"/>
</svg>
