<svg width="40" height="40" viewBox="0 0 40 40" fill="none" xmlns="http://www.w3.org/2000/svg">
<rect x="0.5" y="0.5" width="39" height="39" rx="19.5" stroke="#F59E32"/>
<path d="M21.1667 19.4083C21.2448 19.4858 21.3068 19.578 21.3491 19.6795C21.3914 19.7811 21.4132 19.89 21.4132 20C21.4132 20.11 21.3914 20.2189 21.3491 20.3205C21.3068 20.422 21.2448 20.5142 21.1667 20.5917L17.3417 24.4083C17.2636 24.4858 17.2016 24.578 17.1593 24.6795C17.117 24.7811 17.0952 24.89 17.0952 25C17.0952 25.11 17.117 25.2189 17.1593 25.3205C17.2016 25.422 17.2636 25.5142 17.3417 25.5917C17.4978 25.7469 17.709 25.834 17.9292 25.834C18.1493 25.834 18.3605 25.7469 18.5167 25.5917L22.3417 21.7667C22.8099 21.2979 23.0728 20.6625 23.0728 20C23.0728 19.3375 22.8099 18.7021 22.3417 18.2333L18.5167 14.4083C18.3615 14.2544 18.152 14.1676 17.9333 14.1667C17.8237 14.166 17.715 14.187 17.6134 14.2285C17.5119 14.27 17.4195 14.3311 17.3417 14.4083C17.2636 14.4858 17.2016 14.578 17.1593 14.6795C17.117 14.7811 17.0952 14.89 17.0952 15C17.0952 15.11 17.117 15.2189 17.1593 15.3205C17.2016 15.422 17.2636 15.5142 17.3417 15.5917L21.1667 19.4083Z" fill="#F59E32"/>
</svg>
