<svg width="15" height="15" viewBox="0 0 15 15" fill="none" xmlns="http://www.w3.org/2000/svg">
<path d="M7.49968 0C5.51121 0.00215068 3.60481 0.793018 2.19875 2.19907C0.792695 3.60513 0.00182786 5.51154 -0.000322814 7.5C-0.0790728 13.4831 6.97405 17.1431 11.8122 13.6356C11.8817 13.5894 11.9413 13.5297 11.9873 13.46C12.0334 13.3904 12.065 13.3122 12.0804 13.2301C12.0957 13.148 12.0945 13.0637 12.0767 12.9821C12.0589 12.9005 12.025 12.8234 11.9768 12.7551C11.9287 12.6869 11.8674 12.6289 11.7966 12.5848C11.7257 12.5406 11.6467 12.5111 11.5642 12.498C11.4817 12.4849 11.3975 12.4884 11.3164 12.5084C11.2353 12.5284 11.1591 12.5644 11.0922 12.6144C7.06218 15.535 1.18718 12.4862 1.24968 7.5C1.5928 -0.79125 13.4078 -0.789375 13.7497 7.5V8.75C13.7497 9.08152 13.618 9.39946 13.3836 9.63388C13.1491 9.8683 12.8312 10 12.4997 10C12.1682 10 11.8502 9.8683 11.6158 9.63388C11.3814 9.39946 11.2497 9.08152 11.2497 8.75V7.5C11.0922 2.54437 3.90655 2.545 3.74968 7.5C3.75695 8.26 3.99434 8.99996 4.43054 9.62235C4.86675 10.2447 5.4813 10.7204 6.19321 10.9865C6.90512 11.2527 7.68096 11.2969 8.41849 11.1133C9.15602 10.9297 9.82061 10.527 10.3247 9.95813C10.5958 10.4366 11.0172 10.8124 11.5235 11.0272C12.0298 11.242 12.5928 11.2838 13.1253 11.1462C13.6578 11.0086 14.1301 10.6992 14.4689 10.266C14.8078 9.83282 14.9943 9.29996 14.9997 8.75V7.5C14.9975 5.51154 14.2067 3.60513 12.8006 2.19907C11.3945 0.793018 9.48814 0.00215068 7.49968 0ZM7.49968 10C6.83664 10 6.20075 9.73661 5.73191 9.26777C5.26307 8.79893 4.99968 8.16304 4.99968 7.5C4.99968 6.83696 5.26307 6.20107 5.73191 5.73223C6.20075 5.26339 6.83664 5 7.49968 5C8.16272 5 8.7986 5.26339 9.26745 5.73223C9.73629 6.20107 9.99968 6.83696 9.99968 7.5C9.99968 8.16304 9.73629 8.79893 9.26745 9.26777C8.7986 9.73661 8.16272 10 7.49968 10Z" fill="#F59E32"/>
</svg>
