<svg width="25" height="68" viewBox="0 0 25 68" fill="none" xmlns="http://www.w3.org/2000/svg">
<g clip-path="url(#clip0_2035_18)">
<path d="M12.5 25C19.4036 25 25 19.4036 25 12.5C25 5.59644 19.4036 0 12.5 0C5.59644 0 0 5.59644 0 12.5C0 19.4036 5.59644 25 12.5 25Z" fill="#F59E32"/>
<path d="M13.5804 8.21436L10.9077 8.48657C10.8717 8.49014 10.8364 8.50221 10.8055 8.52157L7.73202 10.4384C7.67195 10.476 7.62923 10.5419 7.61859 10.6134L7.21788 13.2145C7.20709 13.2774 7.22095 13.3444 7.25566 13.3973L9.1308 16.1345C9.1493 16.164 9.17402 16.1894 9.20266 16.2084L12.1476 17.9853C12.1752 18.0031 12.2062 18.015 12.2384 18.0203L13.3044 18.1641C13.3637 18.1721 13.4256 18.1565 13.4746 18.1214L16.6879 15.8001C16.7192 15.7782 16.7453 15.7486 16.7636 15.7146L17.8297 13.6422C17.8618 13.5794 17.866 13.5023 17.841 13.4361L16.5065 9.8785C16.486 9.82436 16.4464 9.77807 16.3969 9.75021L13.7203 8.24157C13.6712 8.20578 13.6279 8.21864 13.5804 8.21436ZM13.6144 8.74707L15.8789 10.0263L15.2627 13.0746L13.4367 14.1982L11.7242 13.6966L10.1251 12.0481L13.6144 8.74707ZM12.8546 8.78593L9.74323 11.7331L8.31802 10.6561L11.0059 8.9765L12.8546 8.78593ZM16.2532 10.6017L17.3495 13.51L16.5632 15.0381L15.7277 13.2223L16.2532 10.6017ZM8.03823 11.0644L9.5013 12.1647L9.20645 15.388L7.70938 13.1912L8.03823 11.0644ZM9.94738 12.573C10.461 13.0878 10.9522 13.6268 11.4709 14.136L11.8603 17.2387L9.64495 15.8974L9.94738 12.573ZM15.361 13.5916L16.2457 15.5124L13.6447 17.3904L13.7429 14.5948L15.361 13.5916ZM11.9775 14.2876L13.2553 14.6609L13.1494 17.6431L12.3858 17.5381L11.9775 14.2876Z" fill="white"/>
<path d="M12.8572 28.5715H11.4286V67.143H12.8572V28.5715Z" fill="#D9D9D9"/>
</g>
<defs>
<clipPath id="clip0_2035_18">
<rect width="25" height="67.1429" fill="white"/>
</clipPath>
</defs>
</svg>
