<svg width="35" height="94" viewBox="0 0 35 94" fill="none" xmlns="http://www.w3.org/2000/svg">
<g clip-path="url(#clip0_2035_18)">
<path d="M17.5 35C27.165 35 35 27.165 35 17.5C35 7.83502 27.165 0 17.5 0C7.83502 0 0 7.83502 0 17.5C0 27.165 7.83502 35 17.5 35Z" fill="#F59E32"/>
<path d="M19.0126 11.5L15.2707 11.8811C15.2203 11.8861 15.171 11.903 15.1277 11.9301L10.8248 14.6137C10.7407 14.6663 10.6809 14.7585 10.666 14.8586L10.105 18.5002C10.0899 18.5882 10.1093 18.682 10.1579 18.7561L12.7831 22.5882C12.809 22.6295 12.8436 22.665 12.8837 22.6916L17.0066 25.1793C17.0452 25.2042 17.0887 25.2209 17.1337 25.2283L18.6262 25.4296C18.7091 25.4408 18.7958 25.419 18.8644 25.3698L23.3631 22.1201C23.4069 22.0894 23.4434 22.048 23.469 22.0003L24.9615 19.099C25.0065 19.0111 25.0124 18.9031 24.9774 18.8105L23.1091 13.8298C23.0804 13.754 23.025 13.6892 22.9556 13.6502L19.2084 11.5381C19.1396 11.488 19.079 11.506 19.0126 11.5ZM19.0602 12.2458L22.2305 14.0367L21.3678 18.3043L18.8114 19.8774L16.4139 19.1752L14.1751 16.8672L19.0602 12.2458ZM17.9964 12.3002L13.6405 16.4263L11.6452 14.9185L15.4083 12.567L17.9964 12.3002ZM22.7545 14.8423L24.2893 18.9139L23.1885 21.0532L22.0188 18.5111L22.7545 14.8423ZM11.2535 15.4901L13.3018 17.0305L12.889 21.5431L10.7931 18.4676L11.2535 15.4901ZM13.9263 17.6021C14.6454 18.3228 15.333 19.0774 16.0593 19.7903L16.6044 24.1341L13.5029 22.2562L13.9263 17.6021ZM21.5054 19.0282L22.7439 21.7173L19.1025 24.3464L19.2401 20.4326L21.5054 19.0282ZM16.7685 20.0026L18.5574 20.5252L18.4092 24.7002L17.3401 24.5533L16.7685 20.0026Z" fill="white"/>
<path d="M18 40H16V94H18V40Z" fill="#D9D9D9"/>
</g>
<defs>
<clipPath id="clip0_2035_18">
<rect width="35" height="94" fill="white"/>
</clipPath>
</defs>
</svg>
