<svg width="15" height="15" viewBox="0 0 15 15" fill="none" xmlns="http://www.w3.org/2000/svg">
<g clip-path="url(#clip0_0_554)">
<path d="M3.125 3.75439C3.125 3.40877 3.405 3.12939 3.75 3.12939H5.625C5.97 3.12939 6.25 3.40877 6.25 3.75439C6.25 4.10002 5.97 4.37939 5.625 4.37939H3.75C3.405 4.37939 3.125 4.10002 3.125 3.75439ZM6.875 5.62939H3.75C3.405 5.62939 3.125 5.90877 3.125 6.25439C3.125 6.60002 3.405 6.87939 3.75 6.87939H6.875C7.22 6.87939 7.5 6.60002 7.5 6.25439C7.5 5.90877 7.22 5.62939 6.875 5.62939ZM6.875 8.12939H3.75C3.405 8.12939 3.125 8.40877 3.125 8.75439C3.125 9.10002 3.405 9.37939 3.75 9.37939H6.875C7.22 9.37939 7.5 9.10002 7.5 8.75439C7.5 8.40877 7.22 8.12939 6.875 8.12939ZM14.9619 2.91502C14.8719 2.66814 14.6369 2.50439 14.375 2.50439H12.4994L11.8356 0.641895C11.7444 0.39752 11.5106 0.23502 11.25 0.23502C10.9894 0.23502 10.755 0.39752 10.6644 0.641895L10.0006 2.50439H8.125C7.86312 2.50439 7.62875 2.66814 7.53875 2.91377C7.44813 3.16002 7.52125 3.43564 7.72125 3.60564L9.20687 4.81502L8.61875 6.70002C8.53938 6.95314 8.62813 7.22877 8.84 7.38814C8.95063 7.47127 9.0825 7.51314 9.215 7.51314C9.33625 7.51314 9.4575 7.47814 9.5625 7.40752L11.255 6.27502L12.9762 7.39564C13.1981 7.54002 13.4881 7.52877 13.6987 7.36689C13.9094 7.20502 13.9944 6.92752 13.9106 6.67564L13.2987 4.81314L14.7775 3.60877C14.9781 3.43939 15.0519 3.16314 14.9619 2.91627V2.91502ZM13.75 12.5044V12.8169C13.75 14.0231 12.7688 15.0044 11.5625 15.0044H2.18688C0.98125 15.0044 0 14.0231 0 12.8169V3.12939C0 1.40627 1.40188 0.00439453 3.125 0.00439453H8.125C8.47 0.00439453 8.75 0.28377 8.75 0.629395C8.75 0.97502 8.47 1.25439 8.125 1.25439H3.125C2.09125 1.25439 1.25 2.09564 1.25 3.12939V12.8169C1.25 13.3338 1.67062 13.7544 2.1875 13.7544C2.70438 13.7544 3.125 13.3338 3.125 12.8169V12.5044C3.125 11.4706 3.96625 10.6294 5 10.6294H10.625V8.75439C10.625 8.40877 10.905 8.12939 11.25 8.12939C11.595 8.12939 11.875 8.40877 11.875 8.75439V10.6294C12.9087 10.6294 13.75 11.4706 13.75 12.5044ZM12.5 12.5044C12.5 12.1594 12.2194 11.8794 11.875 11.8794H5C4.65562 11.8794 4.375 12.1594 4.375 12.5044V12.8169C4.375 13.1519 4.29875 13.47 4.16375 13.7544H11.5625C12.0794 13.7544 12.5 13.3338 12.5 12.8169V12.5044Z" fill="#F59E32"/>
</g>
<defs>
<clipPath id="clip0_0_554">
<rect width="15" height="15" fill="white" transform="translate(0 0.00439453)"/>
</clipPath>
</defs>
</svg>
