<svg width="15" height="15" viewBox="0 0 15 15" fill="none" xmlns="http://www.w3.org/2000/svg">
<g clip-path="url(#clip0_0_563)">
<path d="M7.47375 15.0095L7.03808 14.636C6.43746 14.1331 1.19312 9.6039 1.19312 6.29089C1.19312 2.8222 4.00506 0.0102539 7.47375 0.0102539C10.9424 0.0102539 13.7544 2.8222 13.7544 6.29089C13.7544 9.60393 8.51004 14.1331 7.91191 14.6385L7.47375 15.0095ZM7.47375 1.36831C4.75638 1.37139 2.55428 3.57349 2.5512 6.29086C2.5512 8.37217 5.77772 11.697 7.47375 13.2188C9.1698 11.6964 12.3963 8.36965 12.3963 6.29086C12.3932 3.57349 10.1912 1.37142 7.47375 1.36831Z" fill="#F59E32"/>
<path d="M7.47372 8.78045C6.09876 8.78045 4.98413 7.66582 4.98413 6.29086C4.98413 4.9159 6.09876 3.80127 7.47372 3.80127C8.84868 3.80127 9.96331 4.9159 9.96331 6.29086C9.96331 7.66582 8.84871 8.78045 7.47372 8.78045ZM7.47372 5.04604C6.78624 5.04604 6.22893 5.60335 6.22893 6.29083C6.22893 6.97831 6.78624 7.53562 7.47372 7.53562C8.1612 7.53562 8.71851 6.97831 8.71851 6.29083C8.71851 5.60335 8.16123 5.04604 7.47372 5.04604Z" fill="#F59E32"/>
</g>
<defs>
<clipPath id="clip0_0_563">
<rect width="15" height="15" fill="white" transform="translate(0 0.00439453)"/>
</clipPath>
</defs>
</svg>
