<svg width="15" height="15" viewBox="0 0 15 15" fill="none" xmlns="http://www.w3.org/2000/svg">
<path d="M1.14375 1.13558L1.8 0.56701C2.55625 -0.189003 3.78125 -0.189003 4.5375 0.56701C4.55625 0.585754 5.7125 2.09153 5.7125 2.09153C6.425 2.8413 6.425 4.02218 5.7125 4.7657L4.9875 5.67791C5.9 7.74602 7.31875 9.17057 9.31875 10.0203L10.2313 9.28928C10.975 8.57076 12.1625 8.57076 12.9063 9.28928C12.9063 9.28928 14.4125 10.4452 14.4313 10.4639C15.1875 11.2199 15.1875 12.4445 14.4625 13.1693L13.8375 13.8878C13.1188 14.6064 12.15 15 11.1 15C6.325 15 3.8147e-06 8.67073 3.8147e-06 3.90347C3.8147e-06 2.86004 0.393754 1.88535 1.14375 1.14183V1.13558ZM11.1 13.7441C11.8125 13.7441 12.4688 13.4817 12.9188 13.0256L13.5438 12.3071C13.8 12.0509 13.8125 11.6323 13.5688 11.3636C13.5688 11.3636 12.075 10.214 12.0563 10.1953C11.8 9.93908 11.35 9.93908 11.0875 10.1953C11.0688 10.214 9.8125 11.2199 9.8125 11.2199C9.6375 11.3574 9.40625 11.3949 9.20001 11.3137C6.6125 10.3265 4.75625 8.47704 3.6875 5.80912C3.60625 5.60294 3.6375 5.36551 3.78125 5.18432C3.78125 5.18432 4.7875 3.92221 4.8 3.90972C5.06875 3.64105 5.06875 3.20993 4.8 2.94127C4.78125 2.92252 3.63125 1.42924 3.63125 1.42924C3.3625 1.18557 2.94375 1.19181 2.65625 1.47923L2 2.0478C1.51875 2.5289 1.25 3.18494 1.25 3.89722C1.25 8.24586 7.35625 13.7441 11.1 13.7441Z" fill="#F59E32"/>
</svg>
