<svg width="40" height="40" viewBox="0 0 40 40" fill="none" xmlns="http://www.w3.org/2000/svg">
<circle cx="20" cy="20" r="19.25" stroke="#F59E32" stroke-width="1.5"/>
<g clip-path="url(#clip0_0_609)">
<path d="M20 20C20.7417 20 21.4667 19.7801 22.0834 19.368C22.7001 18.956 23.1807 18.3703 23.4645 17.6851C23.7484 16.9998 23.8226 16.2458 23.6779 15.5184C23.5333 14.791 23.1761 14.1228 22.6517 13.5984C22.1272 13.0739 21.459 12.7168 20.7316 12.5721C20.0042 12.4274 19.2502 12.5016 18.5649 12.7855C17.8797 13.0693 17.294 13.5499 16.882 14.1666C16.4699 14.7833 16.25 15.5083 16.25 16.25C16.251 17.2443 16.6464 18.1975 17.3494 18.9006C18.0525 19.6036 19.0057 19.999 20 20ZM20 13.75C20.4945 13.75 20.9778 13.8966 21.3889 14.1713C21.8 14.446 22.1205 14.8365 22.3097 15.2933C22.4989 15.7501 22.5484 16.2528 22.452 16.7377C22.3555 17.2227 22.1174 17.6681 21.7678 18.0178C21.4181 18.3674 20.9727 18.6055 20.4877 18.702C20.0028 18.7984 19.5001 18.7489 19.0433 18.5597C18.5865 18.3705 18.196 18.05 17.9213 17.6389C17.6466 17.2278 17.5 16.7445 17.5 16.25C17.5 15.587 17.7634 14.9511 18.2322 14.4822C18.7011 14.0134 19.337 13.75 20 13.75Z" fill="#F59E32"/>
<path d="M20 21.25C18.5087 21.2517 17.0789 21.8448 16.0244 22.8994C14.9698 23.9539 14.3767 25.3837 14.375 26.875C14.375 27.0408 14.4408 27.1997 14.5581 27.3169C14.6753 27.4342 14.8342 27.5 15 27.5C15.1658 27.5 15.3247 27.4342 15.4419 27.3169C15.5592 27.1997 15.625 27.0408 15.625 26.875C15.625 25.7147 16.0859 24.6019 16.9064 23.7814C17.7269 22.9609 18.8397 22.5 20 22.5C21.1603 22.5 22.2731 22.9609 23.0936 23.7814C23.9141 24.6019 24.375 25.7147 24.375 26.875C24.375 27.0408 24.4408 27.1997 24.5581 27.3169C24.6753 27.4342 24.8342 27.5 25 27.5C25.1658 27.5 25.3247 27.4342 25.4419 27.3169C25.5592 27.1997 25.625 27.0408 25.625 26.875C25.6233 25.3837 25.0302 23.9539 23.9756 22.8994C22.9211 21.8448 21.4913 21.2517 20 21.25Z" fill="#F59E32"/>
</g>
<defs>
<clipPath id="clip0_0_609">
<rect width="15" height="15" fill="white" transform="translate(12.5 12.5)"/>
</clipPath>
</defs>
</svg>
